<?xml version="1.0" encoding="utf-8"?>
<!-- Generator: Adobe Illustrator 16.0.0, SVG Export Plug-In . SVG Version: 6.00 Build 0)  -->
<!DOCTYPE svg PUBLIC "-//W3C//DTD SVG 1.1//EN" "http://www.w3.org/Graphics/SVG/1.1/DTD/svg11.dtd">
<svg version="1.1" id="Layer_1" xmlns="http://www.w3.org/2000/svg" xmlns:xlink="http://www.w3.org/1999/xlink" x="0px" y="0px"
	 width="96.378px" height="96.378px" viewBox="0 0 96.378 96.378" enable-background="new 0 0 96.378 96.378" xml:space="preserve">
<g>
	<g>
		<g>
			<path fill="#AAABAB" d="M48.177,96.378c-26.577,0-48.2-21.622-48.2-48.201c0-26.578,21.623-48.201,48.2-48.201
				c26.579,0,48.201,21.623,48.201,48.201C96.378,74.756,74.756,96.378,48.177,96.378z M48.177,6.691
				c-22.875,0-41.486,18.611-41.486,41.486c0,22.875,18.611,41.486,41.486,41.486s41.486-18.611,41.486-41.486
				C89.664,25.302,71.052,6.691,48.177,6.691z"/>
			<g>
				<path fill="#969696" d="M19.771,46.465v-1.88l1.941-0.366V31.047h-3.577l-0.269,2.271H15.56v-4.627h15.393v4.627h-2.319
					l-0.269-2.271h-3.577v13.172l1.941,0.366v1.88H19.771z"/>
				<path fill="#969696" d="M31.828,46.465v-1.88l1.831-0.366v-8.703l-1.941-0.367v-1.892h5.017v10.962l1.819,0.366v1.88H31.828z
					 M33.537,30.266v-2.844h3.198v2.844H33.537z"/>
				<path fill="#969696" d="M46.485,46.721c-1.245,0-2.33-0.278-3.253-0.836c-0.923-0.557-1.64-1.328-2.148-2.313
					c-0.508-0.985-0.763-2.112-0.763-3.382v-0.513c0-1.286,0.25-2.431,0.751-3.437c0.5-1.005,1.19-1.794,2.069-2.368
					c0.879-0.573,1.88-0.86,3.003-0.86c1.196,0,2.199,0.24,3.009,0.72c0.81,0.48,1.422,1.162,1.837,2.045
					c0.415,0.884,0.623,1.943,0.623,3.18v1.758h-8.105l-0.024,0.062c0.032,0.691,0.177,1.306,0.433,1.843
					c0.257,0.537,0.623,0.961,1.099,1.27c0.477,0.31,1.056,0.465,1.74,0.465c0.716,0,1.367-0.098,1.953-0.293
					s1.127-0.473,1.623-0.83l0.965,1.928c-0.521,0.439-1.185,0.811-1.99,1.111C48.499,46.57,47.559,46.721,46.485,46.721z
					 M41.944,31.157V30.84l3.064-2.71h2.209l3.063,2.734v0.293h-2.49l-1.697-1.624l-1.697,1.624H41.944z M43.555,38.555h5.115
					v-0.317c0-0.578-0.087-1.084-0.263-1.52c-0.175-0.436-0.447-0.775-0.817-1.02c-0.371-0.244-0.841-0.366-1.41-0.366
					c-0.497,0-0.932,0.139-1.306,0.415c-0.375,0.276-0.673,0.653-0.897,1.129c-0.224,0.477-0.377,1.016-0.458,1.618L43.555,38.555z
					 M48.218,28.02l1.428-2.783h2.747l0.024,0.074l-2.368,2.709h-1.733H48.218z"/>
				<path fill="#969696" d="M53.622,46.465v-1.88l1.831-0.366v-8.703l-1.929-0.367v-1.892h4.761l0.158,1.917
					c0.439-0.684,0.987-1.215,1.642-1.594c0.655-0.378,1.398-0.567,2.229-0.567c1.358,0,2.417,0.417,3.174,1.251
					c0.757,0.835,1.135,2.139,1.135,3.912v6.043l1.831,0.366v1.88h-6.628v-1.88l1.721-0.366v-6.018c0-1.002-0.199-1.711-0.598-2.131
					c-0.399-0.419-0.993-0.629-1.782-0.629c-0.595,0-1.113,0.133-1.557,0.397s-0.804,0.633-1.08,1.104v7.275l1.672,0.366v1.88
					H53.622z"/>
				<path fill="#969696" d="M75.871,51.798c-0.651,0-1.373-0.087-2.167-0.262c-0.793-0.176-1.491-0.417-2.093-0.727l0.635-2.246
					c0.521,0.236,1.094,0.427,1.721,0.574s1.221,0.219,1.782,0.219c1.009,0,1.748-0.278,2.216-0.835
					c0.468-0.558,0.702-1.345,0.702-2.361v-1.038c-0.407,0.521-0.892,0.918-1.453,1.19s-1.204,0.408-1.929,0.408
					c-1.074,0-2-0.268-2.777-0.805c-0.776-0.537-1.371-1.29-1.782-2.259c-0.41-0.969-0.616-2.092-0.616-3.369v-0.257
					c0-1.407,0.206-2.637,0.616-3.686c0.411-1.051,1.001-1.868,1.771-2.454c0.769-0.586,1.687-0.879,2.753-0.879
					c0.806,0,1.505,0.165,2.1,0.494c0.594,0.33,1.099,0.8,1.514,1.41l0.231-1.66h2.649v12.915c0,1.147-0.232,2.143-0.696,2.984
					c-0.464,0.843-1.135,1.493-2.014,1.953S77.099,51.798,75.871,51.798z M76.115,44.292c0.594,0,1.101-0.126,1.52-0.378
					c0.42-0.253,0.764-0.619,1.032-1.1v-5.883c-0.269-0.465-0.615-0.828-1.038-1.093s-0.924-0.397-1.501-0.397
					c-0.676,0-1.231,0.194-1.667,0.58c-0.435,0.387-0.757,0.924-0.964,1.611c-0.208,0.688-0.312,1.487-0.312,2.398v0.257
					c0,1.221,0.234,2.193,0.702,2.917C74.355,43.93,75.097,44.292,76.115,44.292z M81.328,35.576l-1.294-2.319h3.296v1.892
					L81.328,35.576z"/>
				<path fill="#969696" d="M32.263,71.464L26.44,55.779l-1.514-0.195v-1.893h6.458v1.893l-1.611,0.256l3.699,10.828l0.33,1.159
					h0.073l0.342-1.147l3.748-10.852l-1.843-0.244v-1.893h6.262v1.893l-1.538,0.195l-5.603,15.686H32.263z"/>
				<path fill="#969696" d="M44.039,71.464v-1.88l1.831-0.366v-8.703l-1.941-0.367v-1.892h5.017v10.962l1.819,0.366v1.88H44.039z
					 M45.748,55.265v-2.844h3.198v2.844H45.748z"/>
				<path fill="#969696" d="M58.696,71.72c-1.245,0-2.33-0.278-3.254-0.836c-0.923-0.557-1.64-1.328-2.148-2.313
					c-0.508-0.985-0.763-2.112-0.763-3.382v-0.513c0-1.286,0.25-2.431,0.751-3.437c0.5-1.005,1.19-1.794,2.069-2.368
					c0.879-0.573,1.88-0.86,3.003-0.86c1.196,0,2.199,0.24,3.009,0.72c0.81,0.48,1.422,1.162,1.837,2.045
					c0.415,0.884,0.623,1.943,0.623,3.18v1.758h-8.105l-0.024,0.062c0.032,0.691,0.177,1.306,0.433,1.843
					c0.257,0.537,0.623,0.961,1.099,1.27c0.477,0.31,1.057,0.465,1.74,0.465c0.716,0,1.367-0.098,1.953-0.293
					s1.127-0.473,1.623-0.83l0.965,1.928c-0.521,0.439-1.185,0.811-1.99,1.111S59.77,71.72,58.696,71.72z M54.179,55.681v-0.318
					l3.063-2.941h2.137l3.063,2.967v0.293h-2.441l-1.696-1.783l-1.722,1.783H54.179z M55.766,63.554h5.114v-0.317
					c0-0.578-0.087-1.084-0.263-1.52c-0.175-0.436-0.447-0.775-0.817-1.02s-0.841-0.366-1.41-0.366
					c-0.496,0-0.932,0.139-1.306,0.415c-0.375,0.276-0.674,0.653-0.897,1.129c-0.224,0.477-0.377,1.016-0.458,1.618L55.766,63.554z
					 M56.779,76.396v-2.844h3.198v2.844H56.779z"/>
				<path fill="#969696" d="M70.886,71.697c-1.123,0-1.998-0.315-2.625-0.946s-0.939-1.638-0.939-3.021v-7.275h-1.929v-2.197h1.929
					v-3.21h3.063v3.21h2.612v2.197h-2.612v7.275c0,0.562,0.116,0.971,0.348,1.227c0.232,0.257,0.548,0.385,0.946,0.385
					c0.228,0,0.482-0.021,0.763-0.062c0.281-0.04,0.507-0.081,0.678-0.121l0.317,2.16c-0.358,0.105-0.767,0.195-1.227,0.269
					S71.309,71.697,70.886,71.697z"/>
			</g>
		</g>
	</g>
</g>
</svg>
