<?xml version="1.0" encoding="utf-8"?>
<!-- Generator: Adobe Illustrator 16.0.0, SVG Export Plug-In . SVG Version: 6.00 Build 0)  -->
<!DOCTYPE svg PUBLIC "-//W3C//DTD SVG 1.1//EN" "http://www.w3.org/Graphics/SVG/1.1/DTD/svg11.dtd">
<svg version="1.1" id="Layer_1" xmlns="http://www.w3.org/2000/svg" xmlns:xlink="http://www.w3.org/1999/xlink" x="0px" y="0px"
	 width="96.378px" height="96.378px" viewBox="0 0 96.378 96.378" enable-background="new 0 0 96.378 96.378" xml:space="preserve">
<g>
	<g>
		<g>
			<path fill="#AAABAB" d="M48.177,96.378c-26.577,0-48.2-21.623-48.2-48.201S21.6-0.024,48.177-0.024
				c26.579,0,48.202,21.623,48.202,48.201S74.755,96.378,48.177,96.378z M48.177,6.691c-22.875,0-41.486,18.611-41.486,41.486
				s18.611,41.486,41.486,41.486c22.875,0,41.487-18.611,41.487-41.486S71.052,6.691,48.177,6.691z"/>
			<g enable-background="new    ">
				<path fill="#969696" d="M20.195,63.465v-3.674l3.254-0.631V37.22l-3.254-0.63v-3.695h23.726v8.252h-4.703l-0.273-3.527h-9.364
					v7.684h10.351v4.725H29.581v8.734h9.868l0.273-3.653h4.661v8.356H20.195z"/>
				<path fill="#969696" d="M47.658,63.465v-3.674l3.254-0.631V37.22l-3.254-0.63v-3.695h3.254h6.215l13.312,21.206l0.126-0.021
					V37.22l-3.905-0.63v-3.695h9.385h3.275v3.695l-3.275,0.63v26.245h-5.92L56.519,42.469l-0.127,0.021v16.67l3.927,0.631v3.674
					H47.658z"/>
			</g>
		</g>
	</g>
</g>
</svg>
